<svg version="1.0" xmlns="http://www.w3.org/2000/svg" width="800.000000" height="800.000000" viewBox="0 0 800.000000 800.000000" preserveAspectRatio="xMidYMid meet">
  <metadata>
    <rdf:RDF xmlns:rdf="http://www.w3.org/1999/02/22-rdf-syntax-ns#" xmlns:rdfs="http://www.w3.org/2000/01/rdf-schema#" xmlns:dc="http://purl.org/dc/elements/1.1/">
      <rdf:Description dc:format="image/svg+xml" dc:Label="1" dc:ContentProducer="001191330110MACRLGPT8B00000" dc:ProduceID="364949563" dc:ReservedCode1="Uy6FucGYTX7hhMH2F6vaU/hHoyvWY+FWEORSgR6Sf0o=" dc:ContentPropagator="001191330110MACRLGPT8B00000" dc:PropagateID="364949563" dc:ReservedCode2="Uy6FucGYTX7hhMH2F6vaU/hHoyvWY+FWEORSgR6Sf0o="/>
    </rdf:RDF>
  </metadata>
  <g transform="translate(190.145578,616.400000) scale(0.053333,-0.053333)" fill="#000000" stroke="none">
    <path d="M3350 7960 c-28 -110 -130 -690 -185 -1050 -81 -536 -104 -925 -69 -1192 56 -434 297 -851 754 -1308 305 -305 631 -564 1043 -827 70 -45 132 -83 138 -85 6 -2 8 -233 7 -620 l-3 -618 -466 478 c-256 262 -559 574 -674 692 -189 197 -211 216 -249 222 -22 4 -102 18 -176 33 -346 66 -452 77 -810 80 -359 4 -439 -1 -679 -41 -249 -41 -455 -107 -676 -215 -123 -60 -155 -88 -236 -210 -210 -313 -348 -664 -413 -1050 -35 -201 -47 -367 -45 -614 3 -555 113 -957 378 -1382 l82 -133 1701 0 1701 0 -79 83 c-43 45 -124 129 -180 187 -109 114 -569 597 -919 965 -365 384 -777 816 -1025 1075 -129 135 -314 329 -410 430 -96 102 -228 239 -292 305 -65 67 -118 125 -118 130 0 16 209 93 337 125 270 68 481 91 833 89 328 -2 427 -12 907 -96 24 -4 54 -29 119 -97 85 -89 695 -713 1159 -1186 127 -129 440 -451 695 -715 256 -264 537 -554 625 -645 89 -91 224 -230 301 -310 77 -80 182 -189 234 -243 l94 -97 180 0 180 0 -120 123 c-65 67 -396 407 -734 756 -338 349 -692 714 -787 810 l-172 176 -1 751 0 751 207 138 c852 570 1420 1165 1631 1710 168 431 162 903 -24 1925 -50 272 -107 571 -130 670 l-14 65 -1806 0 -1805 0 -9 -35z m654 -297 c-38 -194 -114 -710 -134 -908 -6 -60 -15 -148 -20 -195 -23 -214 -32 -653 -18 -845 18 -228 78 -532 134 -680 47 -122 129 -226 311 -397 133 -124 193 -165 148 -101 -31 45 -139 303 -190 456 -115 348 -149 573 -149 1007 l-1 305 1455 0 1455 0 0 -255 c0 -283 -12 -377 -67 -545 -176 -532 -778 -1159 -1674 -1743 l-82 -53 -68 42 c-391 239 -747 519 -1064 838 -215 215 -295 308 -410 477 -228 333 -313 628 -296 1019 15 348 74 776 207 1523 l22 122 227 0 227 0 -13 -67z m2778 -23 c18 -89 70 -361 94 -490 13 -71 49 -296 78 -492 7 -48 11 -90 8 -93 -8 -8 -2836 -6 -2848 3 -9 5 -8 39 2 127 32 284 126 886 155 998 l10 37 1242 -2 1242 -3 17 -85z m-5111 -4950 c221 -234 486 -513 588 -620 102 -107 299 -314 436 -460 138 -146 297 -314 355 -375 58 -60 148 -155 200 -210 137 -145 315 -329 473 -491 75 -78 137 -144 137 -148 0 -3 -596 -6 -1324 -6 l-1324 0 -62 105 c-134 226 -219 476 -259 763 -22 161 -26 242 -25 482 2 349 50 625 158 920 61 165 218 474 238 467 3 -1 187 -193 409 -427z"/>
    <path d="M2547 2967 c-43 -30 -37 -148 13 -251 87 -184 288 -346 428 -346 42 0 58 5 76 23 95 95 -38 355 -261 508 -95 66 -215 97 -256 66z"/>
    <path d="M3245 1930 c-62 -68 73 -243 200 -257 54 -7 75 7 75 49 0 66 -85 168 -175 209 -52 24 -78 24 -100 -1z"/>
    <path d="M4179 1931 c-36 -29 -33 -107 6 -186 59 -118 207 -235 298 -235 30 0 46 7 69 30 27 28 30 35 24 73 -24 149 -217 337 -346 337 -15 0 -38 -9 -51 -19z"/>
    <path d="M4790 813 c-19 -10 -40 -29 -47 -43 -39 -77 15 -255 129 -422 l39 -58 279 0 c198 0 280 3 280 11 0 25 -74 149 -124 210 -104 124 -274 251 -391 292 -73 26 -127 29 -165 10z"/>
  </g>
</svg>