<?xml version="1.0" standalone="no"?><!DOCTYPE svg PUBLIC "-//W3C//DTD SVG 1.1//EN" "http://www.w3.org/Graphics/SVG/1.1/DTD/svg11.dtd"><svg t="1769515407227" class="icon" viewBox="0 0 1024 1024" version="1.1" xmlns="http://www.w3.org/2000/svg" p-id="15088" xmlns:xlink="http://www.w3.org/1999/xlink" width="200" height="200"><path d="M682.666667 853.333333V531.2c93.866667-14.933333 213.333333-123.733333 213.333333-232.533333 0-117.333333-27.733333-234.666667-27.733333-234.666667H454.4S426.666667 202.666667 426.666667 298.666667c0 89.6 119.466667 215.466667 213.333333 232.533333V853.333333c0 42.666667-149.333333 85.333333-149.333333 85.333334v21.333333h341.333333v-21.333333s-149.333333-42.666667-149.333333-85.333334z" fill="#90CAF9" p-id="15089"></path><path d="M682.666667 576c91.733333-61.866667 213.333333-160 213.333333-277.333333 0-21.333333 0-42.666667-2.133333-64H430.933333c-2.133333 21.333333-4.266667 44.8-4.266666 64 0 96 85.333333 202.666667 213.333333 277.333333" fill="#D50000" p-id="15090"></path><path d="M533.333333 234.666667c4.266667-46.933333 10.666667-96 17.066667-128h-51.2c-6.4 32-12.8 81.066667-17.066667 128H533.333333z" fill="#FAFAFA" p-id="15091"></path><path d="M533.333333 234.666667h-51.2c-2.133333 21.333333-4.266667 44.8-4.266666 64 0 53.333333 42.666667 132.266667 98.133333 170.666666-34.133333-46.933333-44.8-123.733333-44.8-170.666666 0-19.2 2.133333-42.666667 2.133333-64z" fill="#FF8A80" p-id="15092"></path><path d="M170.666667 960s-42.666667-46.933333-42.666667-170.666667 64-192 64-192 106.666667-83.2 298.666667-21.333333l341.333333 384H170.666667z" fill="#FFE57F" p-id="15093"></path><path d="M128 789.333333c0 123.733333 42.666667 170.666667 42.666667 170.666667h362.666666L192 597.333333s-64 68.266667-64 192z" fill="#FFA000" p-id="15094"></path><path d="M490.666667 576c-51.2-17.066667-98.133333-23.466667-136.533334-23.466667C249.6 552.533333 192 597.333333 192 597.333333l29.866667 32c12.8-8.533333 57.6-34.133333 132.266666-34.133333 36.266667 0 74.666667 6.4 113.066667 17.066667L802.133333 960H853.333333L490.666667 576z" fill="#FFCA28" p-id="15095"></path><path d="M345.6 644.266667c10.666667-10.666667 36.266667 0 57.6 21.333333 21.333333 21.333333 27.733333 46.933333 17.066667 57.6s-36.266667 0-57.6-21.333333c-19.2-23.466667-27.733333-49.066667-17.066667-57.6z m204.8 168.533333c14.933333 17.066667 34.133333 23.466667 42.666667 14.933333 8.533333-6.4 2.133333-25.6-12.8-42.666666s-34.133333-23.466667-42.666667-14.933334c-8.533333 8.533333-2.133333 27.733333 12.8 42.666667z m-113.066667-14.933333c10.666667 10.666667 21.333333 14.933333 27.733334 10.666666s2.133333-17.066667-8.533334-27.733333-21.333333-14.933333-27.733333-10.666667c-4.266667 4.266667-2.133333 17.066667 8.533333 27.733334zM697.6 960c-4.266667-10.666667-12.8-21.333333-21.333333-32-25.6-27.733333-57.6-40.533333-72.533334-27.733333-10.666667 10.666667-6.4 34.133333 8.533334 59.733333h85.333333z" fill="#FFC400" p-id="15096"></path></svg>