<?xml version="1.0" standalone="no"?><!DOCTYPE svg PUBLIC "-//W3C//DTD SVG 1.1//EN" "http://www.w3.org/Graphics/SVG/1.1/DTD/svg11.dtd"><svg t="1769515267690" class="icon" viewBox="0 0 1024 1024" version="1.1" xmlns="http://www.w3.org/2000/svg" p-id="7343" xmlns:xlink="http://www.w3.org/1999/xlink" width="200" height="200"><path d="M502.630065 428.339869c210.823529 0 384.16732 12.047059 384.167321-113.777777S740.224837 20.078431 502.630065 20.078431 123.816993 188.737255 123.816993 314.562092s167.989542 113.777778 378.813072 113.777777z" fill="#F7D06F" p-id="7344"></path><path d="M600.345098 445.071895H452.433987c-146.572549 0.669281-261.688889 1.338562-315.231373-52.203921-20.078431-20.078431-30.117647-46.180392-30.117647-78.305882 0-127.163399 140.54902-311.215686 395.545098-311.215687 111.100654 0 214.839216 36.810458 291.806536 104.407843 68.266667 59.566013 109.09281 136.533333 109.092811 206.807844 0 31.456209-10.039216 57.55817-30.117647 77.636601-48.188235 48.188235-146.572549 52.873203-273.066667 52.873202z m-97.715033-33.464052h50.196079c135.864052 0.669281 252.318954 1.338562 297.160784-43.503268 13.385621-13.385621 20.078431-30.786928 20.078431-53.542483 0-115.785621-139.879739-277.751634-367.435294-277.751634C269.720261 36.810458 140.54902 200.784314 140.54902 314.562092c0 23.424837 6.69281 41.495425 20.078431 54.881045 43.503268 43.503268 158.619608 42.833987 291.806536 42.164706h50.196078z" fill="#1E1E1E" p-id="7345"></path><path d="M431.686275 93.699346a26.771242 23.424837 90 1 0 46.849673 0 26.771242 23.424837 90 1 0-46.849673 0Z" fill="#1B1B1B" p-id="7346"></path><path d="M202.122876 270.389542c-2.007843 0-4.684967-0.669281-6.692811-1.338562-8.700654-3.346405-12.71634-13.385621-8.700653-22.086274 35.471895-82.321569 98.384314-139.210458 187.398693-167.989543 8.700654-2.677124 18.070588 2.007843 21.416993 10.708497 2.677124 8.700654-2.007843 18.070588-10.708497 21.416994-80.983007 26.771242-135.864052 75.628758-167.320261 149.918954-2.677124 5.354248-8.700654 9.369935-15.393464 9.369934z" fill="#1B1B1B" p-id="7347"></path><path d="M372.120261 327.947712h-48.857516c-6.69281 0-12.71634-6.023529-12.71634-13.38562s5.354248-13.385621 12.71634-13.385621h48.857516c6.69281 0 12.71634 6.023529 12.71634 13.385621s-5.354248 13.385621-12.71634 13.38562zM686.682353 327.947712h-48.857516c-6.69281 0-12.71634-6.023529-12.71634-13.38562s5.354248-13.385621 12.71634-13.385621h48.857516c6.69281 0 12.71634 6.023529 12.71634 13.385621s-5.354248 13.385621-12.71634 13.38562z" fill="#FF6376" p-id="7348"></path><path d="M554.833987 247.633987c-6.023529 0-10.708497 5.354248-10.708497 12.71634 0 8.700654-6.023529 16.062745-14.054902 16.062745-7.362092 0-14.054902-7.362092-14.054902-16.062745 0-6.69281-4.684967-12.71634-10.708496-12.71634s-10.708497 5.354248-10.708497 12.71634c0 8.700654-6.023529 16.062745-14.054902 16.062745-7.362092 0-14.054902-7.362092-14.054902-16.062745 0-6.69281-4.684967-12.71634-10.708497-12.71634-6.023529 0-10.708497 5.354248-10.708497 12.71634 0 22.755556 16.062745 40.826144 35.471896 40.826144 9.369935 0 18.070588-4.684967 24.763399-11.377778 6.69281 7.362092 15.393464 11.377778 24.763398 11.377778 19.40915 0 35.471895-18.070588 35.471896-40.826144 0-7.362092-4.684967-12.71634-10.708497-12.71634z" fill="#262626" p-id="7349"></path><path d="M354.718954 214.169935c-9.369935 0-16.732026 10.708497-16.732026 23.424836s7.362092 23.424837 16.732026 23.424837 16.732026-10.708497 16.732026-23.424837-7.362092-23.424837-16.732026-23.424836z" fill="#1E1E1E" p-id="7350"></path><path d="M655.895425 214.169935C639.163399 214.169935 625.777778 231.571242 625.777778 253.657516c0 8.031373 4.684967 14.054902 10.708497 14.054902s10.708497-6.023529 10.708496-14.054902c0-6.023529 4.015686-11.377778 8.700654-11.377777s8.700654 5.354248 8.700653 11.377777c0 8.031373 4.684967 14.054902 10.708497 14.054902 6.023529 0 10.708497-6.023529 10.708497-14.054902 0-22.086275-13.385621-39.487582-30.117647-39.487581z" fill="#333333" p-id="7351"></path><path d="M204.130719 662.588235h622.431373c44.172549 0 80.313725 36.141176 80.313725 80.313726s-36.141176 80.313725-80.313725 80.313725H204.130719c-44.172549 0-80.313725-36.141176-80.313726-80.313725s36.141176-80.313725 80.313726-80.313726z" fill="#B68775" p-id="7352"></path><path d="M826.562092 823.215686H204.130719c-44.172549 0-80.313725-36.141176-80.313726-80.313725s36.141176-80.313725 80.313726-80.313726h622.431373c44.172549 0 80.313725 36.141176 80.313725 80.313726s-36.141176 80.313725-80.313725 80.313725z m-622.431373-127.163398c-26.101961 0-46.849673 20.747712-46.849673 46.849673s20.747712 46.849673 46.849673 46.849673h622.431373c26.101961 0 46.849673-20.747712 46.849673-46.849673s-20.747712-46.849673-46.849673-46.849673H204.130719z" fill="#1E1E1E" p-id="7353"></path><path d="M165.312418 783.058824h714.122876c22.755556 0 40.826144 18.070588 40.826144 40.826143V943.686275c0 44.172549-36.141176 80.313725-80.313726 80.313725H204.130719c-44.172549 0-80.313725-36.141176-80.313726-80.313725v-119.132027c0-22.755556 18.739869-41.495425 41.495425-41.495424z" fill="#F7D06F" p-id="7354"></path><path d="M839.947712 1024H204.130719c-44.172549 0-80.313725-36.141176-80.313726-80.313725v-119.132027c0-22.755556 18.739869-41.495425 41.495425-41.495424h714.122876c22.755556 0 40.826144 18.070588 40.826144 40.826143V943.686275c0 44.172549-36.141176 80.313725-80.313726 80.313725zM165.312418 816.522876c-4.684967 0-8.031373 3.346405-8.031372 8.031372V943.686275c0 26.101961 20.747712 46.849673 46.849673 46.849673h635.816993c26.101961 0 46.849673-20.747712 46.849674-46.849673v-119.801308c0-4.015686-3.346405-7.362092-7.362092-7.362091H165.312418z" fill="#1E1E1E" p-id="7355"></path><path d="M210.154248 501.960784h606.368628c39.487582 4.015686 70.27451 46.849673 70.27451 100.392157 0 55.550327-34.133333 100.392157-75.628759 100.392157-18.739869 0-36.141176-9.369935-49.526797-24.094118-13.385621 14.724183-30.117647 24.094118-49.526797 24.094118s-36.141176-9.369935-49.526798-24.094118c-13.385621 14.724183-30.117647 24.094118-49.526797 24.094118s-36.141176-9.369935-49.526797-24.094118c-13.385621 14.724183-30.117647 24.094118-49.526798 24.094118-20.747712 0-39.487582-10.708497-52.873202-28.779085-13.385621 18.070588-32.12549 28.779085-52.873203 28.779085-18.739869 0-36.141176-9.369935-49.526797-24.094118-13.385621 14.724183-30.117647 24.094118-49.526798 24.094118s-36.141176-9.369935-49.526797-24.094118c-13.385621 14.724183-30.117647 24.094118-49.526798 24.094118C171.335948 702.745098 137.202614 657.903268 137.202614 602.352941c0-54.211765 32.794771-98.384314 72.951634-100.392157z" fill="#6ABD63" p-id="7356"></path><path d="M811.168627 719.477124c-17.401307 0-34.802614-6.023529-49.526797-18.070588-14.724183 11.377778-31.456209 18.070588-49.526797 18.070588s-34.802614-6.023529-49.526798-18.070588c-14.724183 11.377778-31.456209 18.070588-49.526797 18.070588s-34.802614-6.023529-49.526797-18.070588c-14.724183 11.377778-31.456209 18.070588-49.526798 18.070588-19.40915 0-37.479739-7.362092-52.873202-20.747712-15.393464 13.385621-33.464052 20.747712-52.873203 20.747712-17.401307 0-34.802614-6.023529-49.526797-18.070588-14.724183 11.377778-31.456209 18.070588-49.526798 18.070588s-34.802614-6.023529-49.526797-18.070588c-14.724183 11.377778-31.456209 18.070588-49.526798 18.070588C159.288889 719.477124 117.793464 666.603922 117.793464 602.352941c0-56.888889 31.456209-103.738562 74.290196-115.11634v-2.007843h637.155556v2.677124c41.495425 12.047059 71.613072 58.227451 71.613072 114.447059 2.677124 64.25098-38.818301 117.124183-89.683661 117.124183z m-49.526797-66.258823l12.71634 14.054902c7.362092 8.700654 20.078431 18.739869 36.810457 18.739869 32.794771 0 58.896732-37.479739 58.896732-83.660131 0-43.503268-24.094118-80.313725-54.881045-83.660131H211.49281c-32.12549 1.338562-57.55817 38.818301-57.558169 83.660131 0 46.180392 26.771242 83.660131 58.896732 83.660131 16.732026 0 29.448366-10.039216 36.810457-18.739869l12.71634-14.054902 12.71634 14.054902c7.362092 8.700654 20.078431 18.739869 36.810457 18.739869s29.448366-10.039216 36.810458-18.739869l12.71634-14.054902 12.71634 14.054902c7.362092 8.700654 20.078431 18.739869 36.810457 18.739869 14.724183 0 28.779085-8.031373 39.487582-22.086275l13.385621-17.401307 13.385621 17.401307c10.708497 14.054902 25.43268 22.086275 39.487581 22.086275 16.732026 0 29.448366-10.039216 36.810458-18.739869l12.71634-14.054902 12.71634 14.054902c7.362092 8.700654 20.078431 18.739869 36.810457 18.739869s29.448366-10.039216 36.810458-18.739869l12.716339-14.054902 12.71634 14.054902c7.362092 8.700654 20.078431 18.739869 36.810458 18.739869s29.448366-10.039216 36.810457-18.739869l10.039216-14.054902z" fill="#1E1E1E" p-id="7357"></path><path d="M204.130719 428.339869h622.431373c44.172549 0 80.313725 36.141176 80.313725 80.313726s-36.141176 80.313725-80.313725 80.313725H204.130719C159.95817 588.96732 123.816993 552.826144 123.816993 508.653595s36.141176-80.313725 80.313726-80.313726z" fill="#F76B84" p-id="7358"></path><path d="M826.562092 588.96732H204.130719C159.95817 588.96732 123.816993 552.826144 123.816993 508.653595s36.141176-80.313725 80.313726-80.313726h622.431373c44.172549 0 80.313725 36.141176 80.313725 80.313726s-36.141176 80.313725-80.313725 80.313725zM204.130719 461.803922c-26.101961 0-46.849673 20.747712-46.849673 46.849673s20.747712 46.849673 46.849673 46.849673h622.431373c26.101961 0 46.849673-20.747712 46.849673-46.849673s-20.747712-46.849673-46.849673-46.849673H204.130719z" fill="#1E1E1E" p-id="7359"></path></svg>