<svg version="1.0" xmlns="http://www.w3.org/2000/svg" width="800.000000" height="800.000000" viewBox="0 0 800.000000 800.000000" preserveAspectRatio="xMidYMid meet">
  <metadata>
    <rdf:RDF xmlns:rdf="http://www.w3.org/1999/02/22-rdf-syntax-ns#" xmlns:rdfs="http://www.w3.org/2000/01/rdf-schema#" xmlns:dc="http://purl.org/dc/elements/1.1/">
      <rdf:Description dc:format="image/svg+xml" dc:Label="1" dc:ContentProducer="001191330110MACRLGPT8B00000" dc:ProduceID="364949565" dc:ReservedCode1="RkAxf/B5b8ZSmVWpGTuKCMlPE5qado0iRbwqp4SQ4+s=" dc:ContentPropagator="001191330110MACRLGPT8B00000" dc:PropagateID="364949565" dc:ReservedCode2="RkAxf/B5b8ZSmVWpGTuKCMlPE5qado0iRbwqp4SQ4+s="/>
    </rdf:RDF>
  </metadata>
  <g transform="translate(183.652736,621.009081) scale(0.055045,-0.055045)" fill="#000000" stroke="none">
    <path d="M3570 7819 c-149 -12 -351 -45 -509 -84 -436 -107 -821 -288 -1171 -548 -154 -115 -430 -383 -527 -512 -265 -353 -416 -703 -454 -1054 -31 -288 24 -480 189 -661 77 -84 207 -173 326 -223 48 -20 93 -37 99 -38 7 0 -22 -9 -63 -20 -240 -62 -390 -201 -466 -429 -29 -85 -26 -263 4 -354 l23 -70 -20 -60 c-118 -350 -84 -671 99 -955 l40 -62 -33 -42 c-84 -104 -125 -211 -133 -352 -8 -116 13 -214 66 -318 22 -44 40 -81 40 -83 0 -2 -11 -4 -25 -4 -16 0 -31 -10 -42 -27 -17 -25 -18 -83 -21 -875 l-2 -848 2985 0 2985 0 0 895 0 895 -109 0 -109 0 34 68 c82 164 84 354 5 511 -17 32 -57 95 -90 139 -34 44 -61 83 -61 87 0 3 14 27 31 51 149 217 190 565 102 852 -16 51 -16 54 7 100 62 127 86 303 56 422 -43 173 -163 323 -318 399 -97 48 -180 71 -258 71 l-55 1 45 18 c282 111 472 290 550 515 68 199 52 491 -42 774 -273 823 -1118 1525 -2103 1748 -333 75 -717 101 -1075 73z m680 -264 c271 -34 544 -103 780 -197 779 -310 1370 -933 1520 -1603 11 -49 23 -142 26 -205 10 -190 -25 -296 -140 -418 -191 -201 -524 -292 -1221 -331 -219 -12 -2430 -13 -2660 -1 -741 39 -1109 140 -1286 352 -88 106 -110 172 -110 339 1 602 472 1277 1176 1684 425 246 922 382 1450 398 99 3 390 -8 465 -18z m2128 -3154 c81 -38 136 -91 174 -169 19 -40 23 -63 23 -147 0 -89 -3 -106 -28 -157 -37 -76 -104 -143 -175 -176 l-57 -27 -2386 -3 c-2326 -2 -2388 -2 -2448 17 -204 63 -309 300 -219 491 46 99 149 177 258 199 25 5 1087 8 2415 7 l2370 -1 73 -34z m-4991 -901 c29 -11 84 -25 121 -30 45 -7 843 -10 2437 -8 l2370 3 69 22 c38 12 87 32 108 43 22 12 42 19 44 18 9 -9 21 -160 18 -219 -12 -236 -137 -460 -301 -536 -143 -66 -251 -30 -415 141 l-77 80 -93 -96 c-133 -136 -222 -176 -335 -149 -77 19 -168 88 -269 203 l-40 47 -100 -97 c-125 -122 -185 -157 -274 -157 -98 0 -162 35 -281 156 l-95 97 -81 -82 c-124 -128 -207 -176 -304 -176 -84 0 -208 73 -285 167 -62 75 -94 121 -94 132 0 19 -16 12 -27 -11 -20 -43 -114 -153 -171 -201 -163 -136 -309 -113 -489 77 l-89 94 -94 -97 c-122 -124 -179 -156 -275 -156 -97 0 -165 38 -282 156 -48 49 -91 89 -94 89 -3 0 -48 -42 -100 -92 -120 -118 -180 -153 -269 -153 -87 0 -163 37 -245 120 -109 111 -172 266 -182 451 -5 87 7 220 23 245 2 4 30 -8 61 -27 31 -19 81 -43 110 -54z m2152 -868 c105 -83 219 -122 355 -122 130 0 234 37 367 132 13 9 21 7 40 -11 37 -34 172 -98 236 -111 73 -16 213 -8 278 15 54 18 185 95 185 107 0 16 23 7 82 -33 33 -23 88 -53 122 -67 55 -24 74 -26 186 -27 115 0 131 2 196 29 40 15 95 46 124 68 l51 39 52 -37 c99 -71 200 -104 323 -104 91 0 159 17 253 63 l63 32 34 -40 c18 -22 46 -62 61 -90 25 -45 28 -59 28 -150 0 -87 -3 -107 -26 -155 -32 -67 -87 -124 -151 -156 l-47 -24 -2459 0 -2459 0 -55 39 c-63 45 -122 126 -138 190 -16 61 -14 168 5 221 17 49 73 140 85 140 5 0 44 -14 87 -32 100 -40 236 -50 329 -23 70 20 160 65 201 99 17 14 34 26 37 26 4 0 33 -18 65 -39 31 -22 86 -52 122 -67 59 -26 73 -29 189 -28 144 0 195 15 306 90 l65 43 68 -45 c102 -68 185 -94 302 -94 69 0 116 6 160 20 66 20 169 76 204 111 25 25 30 24 74 -9z m3171 -1537 l0 -635 -2730 0 -2730 0 0 635 0 635 2730 0 2730 0 0 -635z"/>
    <path d="M3401 7302 c-52 -26 -74 -63 -79 -132 -5 -71 9 -110 50 -145 38 -32 108 -34 155 -5 97 59 85 234 -20 283 -44 21 -64 21 -106 -1z"/>
    <path d="M2505 6982 c-376 -197 -686 -489 -890 -841 -36 -62 -65 -115 -63 -116 2 -2 52 -29 112 -61 65 -34 111 -53 114 -46 7 23 103 176 159 254 32 45 110 136 173 201 170 177 336 299 538 397 58 28 92 50 91 60 -1 28 -94 205 -109 207 -8 2 -64 -23 -125 -55z"/>
    <path d="M4904 6270 c-92 -20 -167 -123 -180 -247 -6 -54 -4 -61 21 -91 49 -59 122 -32 144 53 21 82 84 95 110 23 7 -18 19 -48 27 -65 24 -57 99 -57 135 0 48 77 -23 261 -121 312 -33 17 -95 24 -136 15z"/>
    <path d="M2616 6239 c-57 -49 -72 -138 -37 -215 23 -52 55 -74 103 -74 51 0 85 17 108 55 91 147 -53 341 -174 234z"/>
    <path d="M3413 6020 c-41 -17 -56 -54 -51 -128 11 -151 114 -260 256 -269 61 -4 73 -2 133 29 l65 33 63 -32 c98 -51 189 -44 283 23 56 40 98 117 105 194 7 71 0 103 -29 130 -52 48 -129 4 -142 -82 -9 -63 -43 -98 -94 -98 -49 0 -78 30 -97 99 -15 60 -27 76 -67 97 -49 25 -87 -9 -113 -101 -19 -68 -50 -98 -98 -97 -53 1 -80 40 -102 145 -3 17 -18 35 -38 47 -35 22 -42 23 -74 10z"/>
    <path d="M2388 5520 l-3 -120 263 0 262 0 0 120 0 120 -259 0 -260 0 -3 -120z"/>
    <path d="M4750 5520 l0 -120 260 0 260 0 0 120 0 120 -260 0 -260 0 0 -120z"/>
  </g>
</svg>