<svg version="1.0" xmlns="http://www.w3.org/2000/svg" width="800.000000" height="800.000000" viewBox="0 0 800.000000 800.000000" preserveAspectRatio="xMidYMid meet">
  <metadata>
    <rdf:RDF xmlns:rdf="http://www.w3.org/1999/02/22-rdf-syntax-ns#" xmlns:rdfs="http://www.w3.org/2000/01/rdf-schema#" xmlns:dc="http://purl.org/dc/elements/1.1/">
      <rdf:Description dc:format="image/svg+xml" dc:Label="1" dc:ContentProducer="001191330110MACRLGPT8B00000" dc:ProduceID="364949564" dc:ReservedCode1="uCQseH/zYz+K83gPC67qQXAnT+yKmmFQAh4gGAjgY/8=" dc:ContentPropagator="001191330110MACRLGPT8B00000" dc:PropagateID="364949564" dc:ReservedCode2="uCQseH/zYz+K83gPC67qQXAnT+yKmmFQAh4gGAjgY/8="/>
    </rdf:RDF>
  </metadata>
  <g transform="translate(176.011130,633.960284) scale(0.057454,-0.057454)" fill="#000000" stroke="none">
    <path d="M3518 7435 c-3 -3 -119 -37 -259 -75 -140 -39 -301 -83 -359 -99 -58 -17 -184 -51 -280 -77 -96 -26 -195 -53 -220 -59 -25 -7 -180 -50 -345 -95 -165 -45 -363 -99 -440 -120 -77 -21 -300 -82 -495 -135 -195 -53 -362 -98 -370 -100 -14 -4 -12 -29 12 -202 15 -109 34 -236 41 -283 8 -47 13 -86 12 -88 -2 -2 -96 -19 -210 -37 -115 -19 -210 -37 -212 -39 -6 -6 -154 -1188 -149 -1193 2 -2 264 38 359 56 34 6 50 5 53 -3 2 -6 31 -139 64 -296 113 -527 261 -1223 315 -1475 29 -137 124 -578 209 -980 86 -401 168 -782 182 -845 14 -63 47 -220 74 -349 27 -128 51 -235 52 -237 2 -1 154 22 338 51 875 142 1234 200 1370 220 63 9 149 23 190 30 84 16 527 86 875 140 376 58 489 76 510 80 20 4 20 7 8 157 -6 84 -14 187 -17 228 -16 205 -37 489 -46 605 -6 72 -19 256 -30 410 -11 154 -22 309 -25 345 -12 158 -34 474 -40 565 -3 55 -8 123 -10 150 -3 28 -9 115 -15 195 -6 80 -15 199 -20 265 -6 66 -12 152 -15 190 -12 177 -32 469 -40 580 -3 33 -11 157 -20 275 -8 118 -18 238 -21 266 l-5 52 63 11 c35 6 135 23 223 37 88 14 162 28 164 30 2 2 -40 104 -94 226 -208 470 -298 676 -332 763 -20 50 -39 94 -43 98 -4 5 -113 -8 -241 -28 -224 -35 -234 -36 -247 -18 -7 10 -56 88 -107 173 -271 452 -388 640 -396 640 -3 0 -8 -2 -11 -5z m12 -510 c56 -93 129 -212 162 -264 33 -51 58 -94 56 -95 -2 -1 -52 -10 -113 -19 -60 -10 -177 -29 -260 -42 -82 -14 -280 -45 -440 -70 -485 -77 -899 -142 -1125 -179 -118 -19 -318 -51 -445 -71 -126 -19 -240 -38 -252 -41 -17 -3 -24 1 -28 18 -7 33 -45 311 -42 313 1 1 56 16 122 34 66 17 154 40 195 51 71 19 299 81 735 201 105 28 303 82 440 119 317 85 812 220 845 230 15 4 29 3 36 -4 6 -6 57 -87 114 -181z m937 -823 c67 -152 125 -284 128 -293 5 -14 -12 -19 -107 -33 -116 -18 -875 -138 -983 -156 -76 -13 -966 -155 -1345 -214 -251 -40 -424 -68 -755 -121 -49 -8 -178 -28 -285 -45 -107 -17 -277 -44 -377 -60 -100 -17 -184 -30 -186 -30 -2 0 2 37 8 83 7 45 25 187 41 315 15 128 31 237 34 242 3 5 48 16 100 24 603 99 1581 254 2025 322 55 8 181 28 280 44 99 16 342 54 540 85 349 54 552 87 645 104 25 5 61 9 80 9 l35 1 122 -277z m-189 -692 c3 -65 50 -696 56 -756 l5 -41 -97 -17 c-53 -9 -308 -50 -567 -91 -504 -81 -551 -88 -835 -134 -102 -17 -329 -53 -505 -81 -176 -28 -414 -66 -530 -85 -115 -19 -311 -50 -435 -70 -124 -19 -234 -37 -245 -40 -18 -4 -23 6 -42 98 -12 56 -49 230 -83 387 -34 157 -64 302 -67 322 -6 41 -22 34 132 58 33 5 143 23 245 40 102 16 313 50 470 75 157 25 341 54 410 65 69 11 224 35 345 54 732 116 1459 232 1575 251 74 12 142 22 150 21 11 -1 16 -16 18 -56z m76 -1082 c3 -24 10 -115 16 -203 6 -88 13 -180 15 -205 3 -25 9 -117 15 -205 6 -88 12 -185 15 -215 3 -30 7 -89 10 -130 3 -41 10 -133 15 -204 14 -184 14 -195 -8 -189 -10 2 -144 -16 -297 -41 -154 -26 -338 -56 -410 -67 -71 -12 -233 -38 -360 -59 -126 -22 -360 -59 -520 -85 -159 -25 -339 -54 -400 -65 -60 -11 -211 -35 -335 -55 -440 -69 -645 -106 -651 -117 -10 -15 -18 17 -93 377 -36 171 -81 387 -101 480 -86 404 -107 506 -103 511 4 4 410 71 783 129 88 14 268 43 400 65 132 21 359 58 505 80 146 23 333 52 415 65 83 13 251 40 375 60 508 81 607 97 650 105 25 4 48 8 52 9 4 0 9 -18 12 -41z m130 -1758 c4 -52 11 -153 16 -225 6 -71 12 -161 15 -200 3 -38 14 -196 25 -350 11 -154 21 -293 23 -310 l2 -30 -140 -22 c-153 -25 -246 -40 -490 -78 -88 -13 -272 -43 -410 -65 -137 -22 -306 -49 -375 -60 -254 -40 -813 -130 -1093 -175 -159 -26 -290 -45 -292 -44 -2 2 -26 114 -55 249 -28 135 -76 355 -105 490 -102 474 -108 501 -99 509 5 4 41 13 79 19 39 7 248 41 465 76 217 36 535 87 705 115 716 116 827 134 1170 191 198 32 398 64 445 70 47 7 87 14 90 17 7 7 16 -63 24 -177z"/>
    <path d="M4060 7250 c0 -3 35 -63 78 -135 l78 -130 139 -6 c77 -4 212 -10 300 -13 88 -4 201 -8 250 -11 50 -2 155 -7 235 -10 80 -3 199 -8 265 -10 66 -3 284 -12 485 -20 537 -22 611 -27 615 -39 20 -63 164 -611 161 -613 -1 -2 -72 9 -157 22 -85 14 -338 55 -564 91 -225 36 -464 74 -530 85 -247 40 -414 63 -419 58 -7 -6 50 -150 89 -230 l28 -56 86 -12 c96 -14 243 -38 1356 -216 292 -46 550 -88 575 -93 l45 -8 32 -274 c17 -151 34 -294 37 -318 l6 -43 -33 6 c-17 3 -129 20 -247 39 -118 19 -343 56 -500 81 -157 25 -411 66 -565 91 -154 25 -372 61 -485 79 -166 27 -208 31 -220 21 -78 -65 -246 -211 -248 -216 -1 -3 150 -29 335 -58 186 -29 462 -73 613 -98 151 -24 399 -64 550 -88 151 -25 296 -48 321 -51 65 -9 70 -14 59 -55 -6 -19 -46 -204 -90 -410 -44 -206 -82 -380 -84 -386 -3 -8 -74 1 -228 27 -460 78 -818 138 -983 164 -93 15 -213 35 -265 45 -52 10 -120 22 -150 25 l-56 7 9 -119 c5 -65 10 -119 11 -120 2 -2 342 -59 757 -128 415 -69 771 -129 791 -133 24 -6 41 -5 48 2 19 19 11 -41 -35 -252 -47 -218 -149 -701 -191 -912 -14 -69 -29 -128 -32 -132 -4 -4 -25 -3 -47 2 -22 6 -67 14 -100 19 -47 8 -665 113 -800 136 -62 11 -261 45 -293 51 l-33 5 7 -118 c4 -65 8 -119 9 -121 3 -3 188 -37 425 -77 587 -100 771 -133 776 -138 3 -3 -6 -61 -20 -129 -15 -68 -45 -213 -67 -323 -67 -325 -167 -786 -172 -792 -5 -4 -712 122 -856 153 l-23 5 7 -138 c4 -76 9 -139 10 -141 2 -2 49 -12 106 -22 57 -10 167 -31 244 -45 77 -15 178 -33 225 -40 47 -8 177 -32 289 -54 113 -22 207 -39 209 -37 6 7 40 152 92 406 73 351 214 1024 245 1165 24 112 110 518 225 1060 42 200 157 738 251 1180 17 77 38 178 48 225 16 71 21 85 37 83 31 -2 346 -53 386 -62 20 -5 39 -7 41 -5 2 2 0 32 -4 66 -4 35 -12 113 -19 173 -6 61 -13 126 -15 145 -2 19 -14 121 -25 225 -11 105 -22 204 -25 220 -2 17 -11 102 -21 190 -9 88 -20 163 -23 167 -5 6 -116 26 -378 68 l-72 12 -24 81 c-14 45 -34 118 -46 162 -11 44 -36 136 -55 205 -19 69 -55 207 -81 307 l-47 181 -132 6 c-72 4 -295 13 -496 21 -201 9 -522 22 -715 30 -999 42 -1315 53 -1315 45z"/>
  </g>
</svg>