<?xml version="1.0" standalone="no"?><!DOCTYPE svg PUBLIC "-//W3C//DTD SVG 1.1//EN" "http://www.w3.org/Graphics/SVG/1.1/DTD/svg11.dtd"><svg t="1769515476974" class="icon" viewBox="0 0 1024 1024" version="1.1" xmlns="http://www.w3.org/2000/svg" p-id="20523" xmlns:xlink="http://www.w3.org/1999/xlink" width="200" height="200"><path d="M944.64 362.666667l-8.106667-57.6c-3.413333-23.04-22.613333-40.533333-46.933333-44.373334l-18.346667-2.56-20.906666-74.666666a42.282667 42.282667 0 0 0-39.253334-31.146667l-281.6-13.226667c-3.413333 0-6.826667 0-10.24 0.853334l24.32 38.826666c3.84-0.853333 8.106667-1.28 12.373334-1.28 12.373333 0 23.893333 2.56 34.56 7.253334l218.88 10.24 15.786666 56.32-194.56-28.586667s0.853333 0.853333 0.853334 1.28l20.906666 45.226667 230.826667 33.706666s0.426667 0 0.853333 0.426667c6.4 1.28 9.813333 4.693333 10.24 8.106667l6.826667 61.013333s-4.693333 3.413333-8.533333 3.413333c-1.28 0-2.133333-0.426667-3.413334-0.426666L656.213333 341.333333l-2.56 5.12c-6.826667 12.373333-16.64 23.04-29.013333 30.72-0.853333 0-2.133333 1.28-3.413333 2.133334h3.413333l223.573333 33.28-19.626666 92.586666-195.84-29.013333 16.64 203.52 137.386666 20.053333-10.24 47.36-17.066666 80.213334c-1.28 6.4-7.68 10.666667-14.08 9.386666l-95.573334-14.08c-1.28 3.413333-2.986667 6.4-4.693333 9.386667-6.4 11.946667-16.213333 21.76-28.16 29.013333l31.146667 4.693334 91.306666 13.226666c28.16 4.266667 55.466667-14.506667 61.866667-42.24l27.733333-130.56 61.44-288c15.36 0.426667 30.293333-5.12 40.533334-15.36s15.786667-25.173333 13.653333-40.106666z" fill="#13227a" p-id="20524"></path><path d="M634.88 789.76l-34.56-426.666667c14.933333-3.413333 27.306667-13.226667 34.133333-26.026666 7.253333-13.226667 8.106667-28.586667 1.706667-42.24l-24.32-52.906667c-10.24-20.906667-33.28-32.426667-57.6-28.586667l-17.92 2.56-41.813333-65.706666c-10.24-15.36-29.013333-23.466667-46.933334-18.346667l-273.493333 68.266667c-21.333333 5.12-35.413333 25.6-32 47.786666l3.84 25.173334-11.093333 1.706666c-24.32 3.413333-43.52 21.333333-47.36 44.373334l-7.68 56.746666c-2.133333 14.933333 2.56 29.44 13.226666 40.533334 10.24 10.24 24.746667 16.213333 40.533334 15.786666l89.173333 418.133334c6.4 28.16 33.28 46.506667 61.866667 42.666666l302.933333-44.8c28.586667-3.84 49.493333-29.44 47.36-58.453333zM458.24 173.226667l31.573333 49.493333L187.733333 266.666667l-3.413333-25.173334 273.92-68.266666z m-262.826667 345.6l-19.626666-92.586667 382.293333-55.893333 7.68 93.866666-370.346667 54.613334z m386.133334 287.573333l-302.933334 44.373333c-6.826667 0.853333-12.8-3.413333-14.08-9.386666l-26.026666-122.026667 343.466666-50.773333 10.24 124.586666c0.426667 6.4-4.266667 11.946667-10.666666 13.226667z m6.4-483.84s-0.853333 0.426667-1.28 0.426667L134.826667 389.12H132.266667c-4.266667 0-7.253333-1.706667-10.24-6.826667l7.68-56.746666c0.853333-3.84 5.12-7.68 11.093333-8.96l11.093333-1.706667 408.32-59.733333h0.853334c5.973333-0.426667 10.666667 2.133333 11.946666 5.12l23.893334 56.32c-1.28 2.56-4.266667 5.12-8.96 5.973333z" fill="#13227a" p-id="20525"></path></svg>