<?xml version="1.0" standalone="no"?><!DOCTYPE svg PUBLIC "-//W3C//DTD SVG 1.1//EN" "http://www.w3.org/Graphics/SVG/1.1/DTD/svg11.dtd"><svg t="1769517667073" class="icon" viewBox="0 0 1024 1024" version="1.1" xmlns="http://www.w3.org/2000/svg" p-id="42686" xmlns:xlink="http://www.w3.org/1999/xlink" width="200" height="200"><path d="M903.314286 384C954.514286 351.085714 987.428571 292.571429 987.428571 226.742857 987.428571 120.685714 903.314286 36.571429 800.914286 36.571429c-73.142857 0-135.314286 43.885714-164.571429 106.057142" fill="#F2F2F2" p-id="42687"></path><path d="M903.314286 387.657143l-270.628572-245.028572 10.971429-18.285714c36.571429-54.857143 95.085714-87.771429 157.257143-87.771428C903.314286 36.571429 987.428571 120.685714 987.428571 226.742857c0 54.857143-21.942857 106.057143-65.828571 142.628572l-18.285714 18.285714z m-197.485715-256l197.485715 179.2c18.285714-25.6 29.257143-54.857143 29.257143-84.114286 0-73.142857-58.514286-135.314286-131.657143-135.314286-36.571429 0-69.485714 14.628571-95.085715 40.228572z" fill="#262626" p-id="42688"></path><path d="M548.571429 585.142857m-347.428572 0a347.428571 347.428571 0 1 0 694.857143 0 347.428571 347.428571 0 1 0-694.857143 0Z" fill="#ff7500" p-id="42689"></path><path d="M512 775.314286c-43.885714 0-84.114286-25.6-106.057143-69.485715-7.314286-14.628571 0-29.257143 10.971429-36.571428 14.628571-7.314286 29.257143 0 36.571428 10.971428 10.971429 25.6 32.914286 40.228571 58.514286 40.228572 21.942857 0 43.885714-14.628571 58.514286-40.228572 7.314286-14.628571 21.942857-18.285714 36.571428-10.971428s18.285714 21.942857 10.971429 36.571428c-21.942857 43.885714-62.171429 69.485714-106.057143 69.485715z" fill="#262626" p-id="42690"></path><path d="M118.820571 384c-51.2-32.914286-84.114286-91.428571-84.114285-157.257143 3.657143-106.057143 84.114286-190.171429 186.514285-190.171428 73.142857 0 138.971429 43.885714 168.228572 109.714285" fill="#F2F2F2" p-id="42691"></path><path d="M118.820571 384l-18.285714-14.628571c-40.228571-36.571429-62.171429-87.771429-62.171428-142.628572 0-106.057143 80.457143-190.171429 182.857142-190.171428 65.828571 0 124.342857 32.914286 157.257143 87.771428l10.971429 18.285714-270.628572 241.371429z m102.4-292.571429c-73.142857 0-131.657143 62.171429-131.657142 135.314286 0 29.257143 10.971429 62.171429 29.257142 84.114286l197.485715-175.542857c-21.942857-29.257143-58.514286-43.885714-95.085715-43.885715z" fill="#262626" p-id="42692"></path><path d="M512 987.428571C270.628571 987.428571 73.142857 789.942857 73.142857 548.571429S270.628571 109.714286 512 109.714286s438.857143 197.485714 438.857143 438.857143-197.485714 438.857143-438.857143 438.857142z m0-822.857142C299.885714 164.571429 128 336.457143 128 548.571429S299.885714 932.571429 512 932.571429 896 760.685714 896 548.571429 724.114286 164.571429 512 164.571429z" fill="#262626" p-id="42693"></path></svg>