<svg version="1.0" xmlns="http://www.w3.org/2000/svg" width="800.000000" height="800.000000" viewBox="0 0 800.000000 800.000000" preserveAspectRatio="xMidYMid meet">
  <metadata>
    <rdf:RDF xmlns:rdf="http://www.w3.org/1999/02/22-rdf-syntax-ns#" xmlns:rdfs="http://www.w3.org/2000/01/rdf-schema#" xmlns:dc="http://purl.org/dc/elements/1.1/">
      <rdf:Description dc:format="image/svg+xml" dc:Label="1" dc:ContentProducer="001191330110MACRLGPT8B00000" dc:ProduceID="364954184" dc:ReservedCode1="XJ+x/ia/Lgss/3iqp/FPL5Rz+UjrziZat8IQT5B7Yy4=" dc:ContentPropagator="001191330110MACRLGPT8B00000" dc:PropagateID="364954184" dc:ReservedCode2="XJ+x/ia/Lgss/3iqp/FPL5Rz+UjrziZat8IQT5B7Yy4="/>
    </rdf:RDF>
  </metadata>
  <g transform="translate(173.074310,630.160096) scale(0.057167,-0.057167)" fill="#000000" stroke="none">
    <path d="M6060 7685 c-231 -33 -454 -122 -640 -253 -102 -73 -257 -235 -334 -349 -37 -57 -74 -103 -81 -103 -8 0 -26 5 -40 10 -49 19 -248 68 -360 88 -323 61 -686 76 -990 41 -214 -24 -505 -86 -661 -139 l-52 -18 -60 91 c-196 299 -517 518 -877 599 -114 25 -340 35 -459 19 -526 -70 -957 -421 -1135 -924 -57 -162 -75 -272 -75 -467 0 -182 7 -241 50 -395 72 -260 199 -474 395 -666 l98 -97 -41 -93 c-103 -240 -196 -578 -234 -849 -25 -181 -30 -640 -10 -820 42 -370 145 -729 303 -1060 115 -242 297 -520 473 -725 112 -130 357 -367 485 -469 486 -385 1043 -629 1655 -723 163 -25 197 -27 495 -27 297 0 333 2 495 27 405 62 724 162 1060 331 229 115 418 237 640 413 122 96 440 419 539 547 419 539 653 1144 702 1811 15 209 6 518 -21 700 -42 284 -136 625 -237 858 l-38 87 110 113 c214 218 338 449 401 747 36 169 36 408 0 570 -53 244 -133 416 -282 607 -151 193 -402 371 -640 454 -191 66 -444 92 -634 64z m375 -341 c541 -113 900 -580 872 -1132 -11 -215 -87 -427 -215 -598 -61 -81 -137 -164 -150 -163 -4 0 -36 46 -72 101 -331 518 -816 948 -1393 1236 l-138 68 49 70 c147 208 404 371 661 419 96 17 300 17 386 -1z m-4586 -9 c225 -43 406 -134 564 -284 54 -51 151 -172 159 -197 2 -6 -64 -46 -147 -89 -559 -290 -971 -657 -1321 -1175 l-104 -155 -63 66 c-135 141 -227 309 -276 501 -24 96 -29 135 -30 258 -3 303 90 542 297 761 240 254 597 375 921 314z m2351 -545 c614 -43 1188 -267 1699 -663 136 -105 413 -382 519 -518 289 -374 480 -773 576 -1206 59 -265 69 -357 70 -658 1 -288 -7 -368 -60 -635 -140 -699 -548 -1339 -1144 -1791 -223 -169 -468 -307 -735 -412 -285 -112 -490 -161 -865 -207 -117 -14 -575 -5 -715 15 -423 58 -817 198 -1188 422 -586 353 -1040 888 -1284 1513 -87 224 -158 519 -183 765 -11 104 -15 501 -6 555 2 14 7 59 11 100 40 448 234 968 509 1365 275 396 631 724 1038 958 373 215 864 368 1258 394 52 3 97 7 99 9 9 8 260 4 401 -6z"/>
    <path d="M4512 2828 c-142 -289 -421 -431 -705 -359 -42 11 -100 31 -129 45 -119 57 -237 182 -301 318 -18 37 -36 68 -41 68 -24 0 -276 -159 -276 -174 0 -18 97 -185 143 -244 102 -134 268 -258 416 -312 345 -126 722 -46 976 207 89 90 136 153 195 262 33 64 44 93 36 99 -6 5 -63 40 -126 77 -63 37 -122 74 -131 82 -15 13 -21 6 -57 -69z"/>
  </g>
</svg>