<?xml version="1.0" standalone="no"?><!DOCTYPE svg PUBLIC "-//W3C//DTD SVG 1.1//EN" "http://www.w3.org/Graphics/SVG/1.1/DTD/svg11.dtd"><svg t="1769515577534" class="icon" viewBox="0 0 1024 1024" version="1.1" xmlns="http://www.w3.org/2000/svg" p-id="27452" xmlns:xlink="http://www.w3.org/1999/xlink" width="200" height="200"><path d="M175.78673933 569.77385436c0 210.05473342 170.30615634 380.98932575 380.98932577 380.98932574 68.34241515 0 132.59999627-18.06753504 187.74525535-49.48933508l106.83412022 17.439099c13.19715602 2.042417 27.17985706-2.042417 36.92061507-11.94028401 7.69834101-7.69834101 12.56872002-18.85308003 12.56872003-30.00781905 0-2.042417 0-4.87037901-0.628436-6.91279602L882.77724074 765.84588673c34.87819807-57.18767612 55.14525911-124.27321924 55.14525911-196.07203237 0-210.05473342-170.30615634-380.98932575-380.98932576-380.98932578-210.21184242 0-381.14643475 170.30615634-381.14643476 380.98932578" fill="#25B195" p-id="27453"></path><path d="M464.71019091 521.07006425c0 13.04004703 5.65592402 26.08009405 14.61113703 35.03530707 8.95521301 8.95521301 21.99526005 14.61113702 35.03530707 14.61113702s26.08009405-5.65592402 35.03530706-14.61113702c8.95521301-8.95521301 14.61113702-21.99526005 14.61113704-35.03530707s-5.65592402-26.08009405-14.61113704-35.03530708c-8.95521301-8.95521301-21.99526005-14.61113702-35.03530706-14.61113703s-26.08009405 5.65592402-35.03530707 14.61113703c-8.95521301 9.11232202-14.61113702 22.15236905-14.61113703 35.03530708" fill="#E9CB5A" p-id="27454"></path><path d="M724.25425942 581.39992037c-16.33933604 0-31.73601807-6.441469-43.04786609-17.91042604s-17.91042605-26.86563906-17.91042604-43.04786607c0-16.33933604 6.441469-31.73601807 17.91042604-43.0478661 11.46895703-11.46895703 26.86563906-17.91042605 43.04786609-17.91042603 16.33933604 0 31.73601807 6.441469 43.04786609 17.91042603 11.46895703 11.46895703 17.91042605 26.86563906 17.91042603 43.0478661 0 16.33933604-6.441469 31.73601807-17.91042603 43.04786607-10.52630302 12.09739302-26.86563906 17.91042605-43.04786609 17.91042604z m-210.68316943 0c-16.33933604 0-31.73601807-6.441469-43.04786608-17.91042604-11.46895703-11.46895703-17.91042605-26.86563906-17.91042602-43.04786607 0-16.33933604 6.441469-31.73601807 17.91042602-43.0478661 11.46895703-11.46895703 26.86563906-17.91042605 43.04786608-17.91042603s31.73601807 6.441469 43.0478661 17.91042603c11.46895703 11.46895703 17.91042605 26.86563906 17.91042602 43.0478661 0 16.33933604-6.441469 31.73601807-17.91042602 43.04786607-11.31184801 12.09739302-27.65118406 17.91042605-43.0478661 17.91042604z m-211.62582341 0c-16.33933604 0-31.73601807-6.441469-43.04786608-17.91042604s-17.91042605-26.86563906-17.91042603-43.04786607c0-16.33933604 6.441469-31.73601807 17.91042603-43.0478661 11.46895703-11.46895703 26.86563906-17.91042605 43.04786608-17.91042603 16.33933604 0 31.73601807 6.441469 43.04786609 17.91042603 11.46895703 11.46895703 17.91042605 26.86563906 17.91042604 43.0478661 0 16.33933604-6.441469 31.73601807-17.91042604 43.04786607-10.52630302 12.09739302-26.70853004 17.91042605-43.04786609 17.91042604z m0 0" fill="#595857" p-id="27455"></path><path d="M514.35663501 996.3247902c-261.90070351 0-475.09761694-213.19691344-475.09761694-475.09761695s213.19691344-475.09761694 475.09761694-475.09761694S989.45425196 259.32646974 989.45425196 521.22717325c0 82.16800717-21.99526005 162.76492432-62.68649114 234.24951947l18.69597104 109.81919122c0.78554501 4.08483399 0.78554501 8.95521301 0.785545 13.04004701 0 21.20971504-8.16966803 41.47677609-23.56635005 56.87345812-17.91042605 17.91042605-44.61895609 26.86563906-69.91350514 22.78080505l-113.90402522-18.69597106c-69.12796013 36.60639708-146.42558828 57.0305671-224.50876144 57.03056714z m0-888.45139677c-227.80805046 0-413.35377981 185.54572935-413.35377982 413.35377982 0 227.80805046 185.54572935 413.35377981 413.35377982 413.35377983 70.85615914 0 141.55520927-18.69597103 203.4561554-54.51682311l9.74075802-5.65592401 135.89928527 22.78080502c6.441469 0.78554501 12.25450203-0.78554501 16.33933604-4.87037899 3.29928901-3.29928901 5.65592402-8.16966803 5.65592401-13.04004703v-3.29928902l-22.78080506-132.59999625 5.65592401-9.74075801c39.12014109-64.25758112 59.38720211-138.25592028 59.38720213-213.19691342-0.15710901-227.17961445-185.54572935-412.56823483-413.35377982-412.56823483z m0 0" fill="#595857" p-id="27456"></path></svg>