<svg version="1.0" xmlns="http://www.w3.org/2000/svg" width="800.000000" height="800.000000" viewBox="0 0 800.000000 800.000000" preserveAspectRatio="xMidYMid meet">
  <metadata>
    <rdf:RDF xmlns:rdf="http://www.w3.org/1999/02/22-rdf-syntax-ns#" xmlns:rdfs="http://www.w3.org/2000/01/rdf-schema#" xmlns:dc="http://purl.org/dc/elements/1.1/">
      <rdf:Description dc:format="image/svg+xml" dc:Label="1" dc:ContentProducer="001191330110MACRLGPT8B00000" dc:ProduceID="364949562" dc:ReservedCode1="364w3nWa3BTQfkUCKNFgNuEHvHBmz8mDcl21ZFJ9DUA=" dc:ContentPropagator="001191330110MACRLGPT8B00000" dc:PropagateID="364949562" dc:ReservedCode2="364w3nWa3BTQfkUCKNFgNuEHvHBmz8mDcl21ZFJ9DUA="/>
    </rdf:RDF>
  </metadata>
  <g transform="translate(166.889309,636.876273) scale(0.058871,-0.058871)" fill="#000000" stroke="none">
    <path d="M3560 7574 c-733 -88 -1442 -410 -1983 -898 -672 -608 -1075 -1394 -1172 -2286 -22 -205 -14 -708 15 -895 145 -956 623 -1774 1360 -2329 536 -404 1123 -631 1802 -696 164 -16 600 -8 758 15 405 56 757 162 1143 344 l109 50 146 -24 c711 -119 766 -127 857 -122 275 12 505 215 562 492 13 67 14 96 5 180 -11 99 -78 539 -107 706 l-16 86 55 102 c167 312 280 616 350 941 166 782 81 1568 -246 2275 -281 604 -710 1106 -1262 1474 -465 310 -909 481 -1487 573 -112 17 -186 21 -454 23 -225 2 -354 -1 -435 -11z m582 -374 c187 -13 337 -33 488 -66 796 -173 1531 -675 1974 -1347 286 -435 464 -925 517 -1427 14 -129 17 -491 5 -620 -41 -472 -177 -908 -415 -1339 l-73 -131 11 -67 c6 -38 40 -247 77 -466 46 -280 63 -410 59 -438 -4 -22 -21 -61 -38 -87 -41 -60 -99 -93 -169 -94 -29 -1 -277 36 -551 81 l-499 83 -176 -85 c-415 -201 -758 -299 -1181 -337 -191 -18 -555 -8 -741 20 -371 55 -763 187 -1055 355 -464 267 -796 574 -1071 990 -258 392 -432 864 -501 1360 -24 181 -25 646 0 825 54 388 151 707 310 1028 444 891 1278 1524 2257 1712 272 53 505 68 772 50z"/>
    <path d="M2066 4425 c-216 -61 -297 -331 -149 -495 70 -77 128 -104 233 -105 73 0 93 4 142 28 107 53 171 151 171 267 1 110 -40 197 -119 253 -83 59 -188 78 -278 52z"/>
    <path d="M3785 4427 c-102 -34 -161 -82 -207 -170 -32 -59 -32 -192 -2 -257 46 -97 154 -168 269 -177 86 -7 167 22 235 86 67 63 94 126 94 221 0 64 -5 84 -32 136 -17 34 -46 74 -64 89 -79 67 -210 99 -293 72z"/>
    <path d="M5463 4431 c-89 -23 -169 -86 -211 -166 -23 -43 -27 -62 -26 -135 0 -103 23 -158 91 -220 68 -63 123 -85 218 -85 68 0 89 4 137 28 208 102 238 380 55 518 -73 54 -185 80 -264 60z"/>
  </g>
</svg>